<?xml version="1.0" encoding="UTF-8"?>
<svg width="44px" height="44px" viewBox="0 0 44 44" version="1.1" xmlns="http://www.w3.org/2000/svg" xmlns:xlink="http://www.w3.org/1999/xlink">
    <!-- Generator: Sketch 53.2 (72643) - https://sketchapp.com -->
    <title>coin</title>
    <desc>Created with Sketch.</desc>
    <defs>
        <linearGradient x1="15.6150831%" y1="14.7876283%" x2="81.5260607%" y2="87.4787885%" id="linearGradient-1">
            <stop stop-color="#FBA130" offset="0%"></stop>
            <stop stop-color="#FFB04F" offset="20%"></stop>
            <stop stop-color="#FEE05A" offset="30%"></stop>
            <stop stop-color="#FFF783" offset="50%"></stop>
            <stop stop-color="#FEE05A" offset="70%"></stop>
            <stop stop-color="#FFB04F" offset="80%"></stop>
            <stop stop-color="#FBA130" offset="100%"></stop>
        </linearGradient>
        <linearGradient x1="9.59117224%" y1="17.6628811%" x2="95.6368982%" y2="70.4509811%" id="linearGradient-2">
            <stop stop-color="#A77327" offset="0%"></stop>
            <stop stop-color="#F6D763" offset="20%"></stop>
            <stop stop-color="#FFCF5A" offset="30%"></stop>
            <stop stop-color="#FFE465" offset="50%"></stop>
            <stop stop-color="#FFCF5A" offset="70%"></stop>
            <stop stop-color="#F6D763" offset="80%"></stop>
            <stop stop-color="#A77327" offset="100%"></stop>
        </linearGradient>
        <linearGradient x1="100%" y1="24.2079272%" x2="24.1722594%" y2="91.9026638%" id="linearGradient-3">
            <stop stop-color="#A77327" offset="0%"></stop>
            <stop stop-color="#F6D763" offset="20%"></stop>
            <stop stop-color="#FFCF5A" offset="30%"></stop>
            <stop stop-color="#FFE465" offset="50%"></stop>
            <stop stop-color="#FFCF5A" offset="70%"></stop>
            <stop stop-color="#F6D763" offset="80%"></stop>
            <stop stop-color="#A77327" offset="100%"></stop>
        </linearGradient>
    </defs>
    <g id="Page-1" stroke="none" stroke-width="1" fill="none" fill-rule="evenodd">
        <g id="coin">
            <circle id="Oval" fill="url(#linearGradient-1)" fill-rule="nonzero" cx="22" cy="22" r="22"></circle>
            <path d="M22,44 C9.8497355,44 0,34.1502645 0,22 C0,9.8497355 9.8497355,0 22,0 C34.1502645,0 44,9.8497355 44,22 C44,34.1502645 34.1502645,44 22,44 Z M22,40 C31.9411255,40 40,31.9411255 40,22 C40,12.0588745 31.9411255,4 22,4 C12.0588745,4 4,12.0588745 4,22 C4,31.9411255 12.0588745,40 22,40 Z" id="Combined-Shape" fill="#FFF59D" fill-rule="nonzero" opacity="0.400000006" style="mix-blend-mode: screen;"></path>
            <circle id="Oval" stroke="url(#linearGradient-2)" cx="22" cy="22" r="21.5"></circle>
            <circle id="Oval-Copy-3" stroke="url(#linearGradient-3)" cx="22" cy="22" r="17.5"></circle>
            <circle id="Oval" stroke="#FFF59D" cx="22" cy="22" r="16.5"></circle>
        </g>
    </g>
</svg>