<?xml version="1.0" encoding="UTF-8"?>
<svg width="148px" height="40px" viewBox="0 0 148 40" version="1.1" xmlns="http://www.w3.org/2000/svg" xmlns:xlink="http://www.w3.org/1999/xlink">
    <!-- Generator: Sketch 53.2 (72643) - https://sketchapp.com -->
    <title>mphasis_logo</title>
    <desc>Created with Sketch.</desc>
    <defs>
        <linearGradient x1="100.040029%" y1="49.9177361%" x2="0.00846540639%" y2="49.9177361%" id="linearGradient-1">
            <stop stop-color="#9055A2" offset="0%"></stop>
            <stop stop-color="#9F4697" offset="22%"></stop>
            <stop stop-color="#C51D7A" offset="66%"></stop>
            <stop stop-color="#C81A78" offset="69%"></stop>
        </linearGradient>
        <linearGradient x1="39.6925199%" y1="38.8636364%" x2="79.3026934%" y2="79.6212121%" id="linearGradient-2">
            <stop stop-color="#FFFFFF" stop-opacity="0" offset="0%"></stop>
            <stop stop-color="#000000" offset="100%"></stop>
        </linearGradient>
        <linearGradient x1="-7.84065436e-14%" y1="49.9475708%" x2="99.990893%" y2="49.9475708%" id="linearGradient-3">
            <stop stop-color="#0B9DD4" offset="0%"></stop>
            <stop stop-color="#A4CE49" offset="85%"></stop>
        </linearGradient>
        <linearGradient x1="60.2659866%" y1="61.2121212%" x2="20.5314484%" y2="20.4545455%" id="linearGradient-4">
            <stop stop-color="#FFFFFF" stop-opacity="0" offset="0%"></stop>
            <stop stop-color="#000000" offset="100%"></stop>
        </linearGradient>
        <linearGradient x1="7.83301831%" y1="93.3654639%" x2="91.2141695%" y2="-6.59699664%" id="linearGradient-5">
            <stop stop-color="#A7DEEE" offset="0%"></stop>
            <stop stop-color="#0B9DD4" offset="100%"></stop>
        </linearGradient>
    </defs>
    <g id="Page-1" stroke="none" stroke-width="1" fill="none" fill-rule="evenodd">
        <g id="my_learning_5" transform="translate(-30.000000, -15.000000)">
            <g id="mphasis_logo" transform="translate(30.000000, 15.000000)">
                <g id="Group" transform="translate(33.000000, 4.000000)" fill="#FFFFFF">
                    <path d="M7.83790702,2.13386518 L4.77668673,6.40158346 L4.48091665,6.40158346 L1.44040027,2.13386518 L1.44040027,9.0600163 L-7.99360578e-15,9.0600163 L-7.99360578e-15,0.0296429725 L1.67405863,0.0296429725 L4.6465479,4.26772432 L7.60424866,0.035570359 L9.27830729,0.035570359 L9.27830729,9.0600163 L7.83790702,9.0600163 L7.83790702,2.13386518 Z M11.2510937,12 L11.2510937,2.68807582 L12.4992434,2.68807582 L12.5761436,3.71944107 C13.0810877,2.97922315 13.9233991,2.54273894 14.8180808,2.55767331 C16.7080516,2.55767331 18.0212707,3.95060914 18.0212707,5.87404606 C18.0212707,7.79748297 16.7849518,9.18745511 14.8180808,9.18745511 C14.0431632,9.18745511 13.0434604,8.89108578 12.5761436,8.11756185 L12.5761436,12 L11.2510937,12 Z M16.6962208,5.87404606 C16.7244154,5.13936461 16.3493355,4.44807096 15.7186521,4.07233154 C15.0879688,3.69659211 14.3027037,3.69659211 13.6720203,4.07233154 C13.041337,4.44807096 12.666257,5.13936461 12.6944517,5.87404606 C12.666257,6.60872751 13.041337,7.30002116 13.6720203,7.67576058 C14.3027037,8.0515 15.0879688,8.0515 15.7186521,7.67576058 C16.3493355,7.30002116 16.7244154,6.60872751 16.6962208,5.87404606 Z M20.7630593,0.0177881995 L20.7630593,3.63053027 C21.231079,2.95346049 22.0121505,2.56325154 22.8334499,2.59620133 C24.6228588,2.59620133 25.4450997,3.79649709 25.4450997,5.61620474 L25.4450997,9.04519783 L24.1200497,9.04519783 L24.1200497,5.62805952 C24.1200497,4.42776375 23.5018903,3.8350251 22.5228913,3.8350251 C21.4936114,3.8350251 20.7719324,4.68856876 20.7719324,5.73178878 L20.7719324,9.04519783 L19.4468825,9.04519783 L19.4468825,0.0177881995 L20.7630593,0.0177881995 Z M32.2478114,2.68807582 L33.5344112,2.68807582 L33.5344112,9.04519783 L32.271473,9.04519783 L32.2241498,8.01383258 C31.7982409,8.82588453 30.8192419,9.19930988 30.0354512,9.19930988 C28.1809729,9.19930988 26.7819804,8.01383258 26.7819804,5.84440912 C26.7819804,3.67498567 28.2371692,2.53100007 30.0650282,2.53100007 C30.9399695,2.50484666 31.7626176,2.94749242 32.2241498,3.69276783 L32.2478114,2.68807582 Z M28.0833687,5.85922759 C28.0513362,6.4223933 28.257716,6.97299767 28.6518136,7.37579164 C29.0459112,7.7785856 29.5912082,7.99624502 30.1537593,7.97530457 C32.8955479,7.97530457 32.8955479,3.75796908 30.1537593,3.75796908 C29.5936581,3.73643333 29.0503208,3.95181849 28.6565177,4.35149295 C28.2627145,4.75116741 28.0547233,5.29831249 28.0833687,5.85922759 Z M39.3906587,4.24697846 C38.9361986,3.83165636 38.3335731,3.61790541 37.7195578,3.65423981 C36.9061901,3.65423981 36.3678886,3.91208113 36.3678886,4.41590898 C36.3678886,4.91973683 36.9328094,5.1509049 37.7432194,5.22796093 C38.9262997,5.33169019 40.4465579,5.58953151 40.4347271,7.22845387 C40.4347271,8.41393117 39.3788279,9.24080159 37.7313886,9.24080159 C36.7021087,9.24080159 35.6609981,9.00666982 34.8357996,8.05532429 L35.5308592,7.11286983 C36.1157268,7.71555837 36.9190585,8.05550132 37.7580079,8.05532429 C38.3879982,8.05532429 39.0948887,7.82119252 39.1096772,7.22845387 C39.1244657,6.63571522 38.5802487,6.44307516 37.6308268,6.3393459 C36.4477465,6.22376186 35.0576271,5.83551804 35.0457963,4.43072745 C35.0339655,3.02593685 36.4980274,2.49543575 37.6840654,2.49543575 C38.5872208,2.44959316 39.4711601,2.7676023 40.138957,3.37861634 L39.3906587,4.24697846 Z M43.2534159,0.817985376 C43.2534159,1.91455188 41.6059766,1.91455188 41.6059766,0.817985376 C41.6059766,-0.278581125 43.2534159,-0.266726352 43.2534159,0.817985376 Z M41.7745656,2.66140258 L43.1025732,2.66140258 L43.1025732,9.04519783 L41.7745656,9.04519783 L41.7745656,2.66140258 Z M48.9440322,4.24697846 C48.4883123,3.83178299 47.8848488,3.61811297 47.2699736,3.65423981 C46.4595636,3.65423981 45.9183043,3.91208113 45.9183043,4.41590898 C45.9183043,4.91973683 46.4861829,5.15683229 47.3084237,5.22796093 C48.491504,5.33169019 50.0117622,5.58953151 49.9999314,7.22845387 C49.9851429,8.41393117 48.9440322,9.24080159 47.2965929,9.24080159 C46.2643553,9.24080159 45.2262023,9.00666982 44.3980461,8.05532429 L45.0931058,7.11286983 C45.6738997,7.71585495 46.4721293,8.05971433 47.3084237,8.06717906 C47.9413716,8.06717906 48.6482621,7.83304729 48.6600929,7.24030864 C48.6719237,6.64756999 48.1336222,6.45492993 47.1812425,6.35120067 C45.9833737,6.23561663 44.6080429,5.84737282 44.5932544,4.44258222 C44.5784659,3.03779162 46.0484432,2.50729053 47.2315235,2.50729053 C48.1340685,2.45709923 49.0191324,2.77086096 49.6893728,3.37861634 L48.9440322,4.24697846 Z" id="Combined-Shape"></path>
                    <path d="M4.47714877,31.7837838 L4.47714877,18.2054054 L0,18.2054054 L0,16 L11.2902012,16 L11.2902012,18.2054054 L6.81305247,18.2054054 L6.81305247,31.7837838 L4.47714877,31.7837838 Z M18.1681399,32 C15.4212902,32 12.7825842,29.8162162 12.7825842,26.3783784 C12.7825842,22.9189189 15.356404,20.7567568 18.1897687,20.7567568 C19.6172654,20.7567568 20.9798759,21.3837838 21.7801392,22.3783784 L21.7801392,20.972973 L24.0944141,20.972973 L24.0944141,31.7837838 L21.7801392,31.7837838 L21.7801392,30.2918919 C20.9582471,31.3513514 19.5956366,32 18.1681399,32 Z M18.492571,29.8810811 C20.4607862,29.8810811 21.9099116,28.3027027 21.9099116,26.3567568 C21.9099116,24.4324324 20.4607862,22.8540541 18.492571,22.8540541 C16.5676133,22.8540541 15.0752304,24.3891892 15.0752304,26.3567568 C15.0752304,28.3243243 16.5676133,29.8810811 18.492571,29.8810811 Z M26.3221742,31.7837838 L26.3221742,16 L28.6364491,16 L28.6364491,31.7837838 L26.3221742,31.7837838 Z M36.2065074,32 C32.7891668,32 30.4965206,29.5567568 30.4965206,26.4216216 C30.4965206,23.2432432 32.940568,20.7567568 36.1199925,20.7567568 C39.3210457,20.7567568 41.6785781,23.0702703 41.6785781,26.2702703 L41.6785781,27.1783784 L32.7242806,27.1783784 C33.0270829,28.8432432 34.3248072,29.9459459 36.2065074,29.9459459 C37.6772616,29.9459459 38.801956,29.1675676 39.3643032,28 L41.2676321,29.0594595 C40.3159677,30.8324324 38.6072973,32 36.2065074,32 Z M36.1199925,22.7891892 C34.5194659,22.7891892 33.2649991,23.7837838 32.8324243,25.2108108 L39.3210457,25.2108108 C38.9749859,23.6540541 37.7854053,22.7891892 36.1199925,22.7891892 Z M43.5386496,31.7837838 L43.5386496,20.972973 L45.8312958,20.972973 L45.8312958,22.3783784 C46.5666729,21.3837838 47.7346248,20.7567568 49.1621215,20.7567568 C51.8873425,20.7567568 53.5527553,22.5297297 53.5527553,25.4702703 L53.5527553,31.7837838 L51.2168516,31.7837838 L51.2168516,25.6648649 C51.2168516,23.8918919 50.3300733,22.7675676 48.5997743,22.7675676 C47.0425052,22.7675676 45.8529246,23.9351351 45.8529246,25.8378378 L45.8529246,31.7837838 L43.5386496,31.7837838 Z M55.2830544,23.0486486 L55.2830544,20.972973 L57.1214971,20.972973 L57.1214971,18.4216216 L59.4574008,17.1459459 L59.4574008,20.972973 L61.750047,20.972973 L61.750047,23.0486486 L59.4574008,23.0486486 L59.4574008,27.3513514 C59.4574008,29.2972973 59.7602031,29.6 61.750047,29.6 L61.750047,31.7837838 L61.4039872,31.7837838 C58.116419,31.7837838 57.1214971,30.7459459 57.1214971,27.372973 L57.1214971,23.0486486 L55.2830544,23.0486486 Z M69.1470754,31.7837838 L69.1470754,16 L71.8074102,16 L79.8100433,27.9351351 L79.8100433,16 L82.145947,16 L82.145947,31.7837838 L79.6586421,31.7837838 L71.5046079,19.6540541 L71.5046079,31.7837838 L69.1470754,31.7837838 Z M89.8025202,32 C86.3851796,32 84.0925334,29.5567568 84.0925334,26.4216216 C84.0925334,23.2432432 86.5365808,20.7567568 89.7160053,20.7567568 C92.9170585,20.7567568 95.2745909,23.0702703 95.2745909,26.2702703 L95.2745909,27.1783784 L86.3202934,27.1783784 C86.6230957,28.8432432 87.92082,29.9459459 89.8025202,29.9459459 C91.2732744,29.9459459 92.3979688,29.1675676 92.960316,28 L94.8636449,29.0594595 C93.9119804,30.8324324 92.2033101,32 89.8025202,32 Z M89.7160053,22.7891892 C88.1154787,22.7891892 86.8610118,23.7837838 86.4284371,25.2108108 L92.9170585,25.2108108 C92.5709987,23.6540541 91.3814181,22.7891892 89.7160053,22.7891892 Z M96.420914,31.7837838 L100.552003,26.2918919 L96.593944,20.972973 L99.4056799,20.972973 L102.001128,24.5405405 L104.618206,20.972973 L107.365055,20.972973 L103.428625,26.2918919 L107.602972,31.7837838 L104.769607,31.7837838 L101.957871,28.0648649 L99.2542787,31.7837838 L96.420914,31.7837838 Z M108.533007,23.0486486 L108.533007,20.972973 L110.37145,20.972973 L110.37145,18.4216216 L112.707354,17.1459459 L112.707354,20.972973 L115,20.972973 L115,23.0486486 L112.707354,23.0486486 L112.707354,27.3513514 C112.707354,29.2972973 113.010156,29.6 115,29.6 L115,31.7837838 L114.65394,31.7837838 C111.366372,31.7837838 110.37145,30.7459459 110.37145,27.372973 L110.37145,23.0486486 L108.533007,23.0486486 Z" id="TalentNext" fill-rule="nonzero"></path>
                </g>
                <g id="Group-4">
                    <path d="M22.5692469,11.8368421 L11.1508919,-2.66453526e-15 L11.1508919,-2.66453526e-15 C10.0485897,1.05003809 9.4103131,2.49365452 9.37663296,4.01291455 C9.34295282,5.53217459 9.91663145,7.00247345 10.9713248,8.1 L18.5923637,15.9947368" id="Path" fill="url(#linearGradient-1)"></path>
                    <polygon id="Path" fill="url(#linearGradient-2)" opacity="0.64" style="mix-blend-mode: multiply;" points="19.8863031 9.02105263 22.5692469 11.8368421 18.5923637 15.9684211 15.840762 13.0684211"></polygon>
                    <path d="M11.9642252,22.8473684 L22.5692469,11.8368421 C24.9003487,14.3067969 24.8583852,18.1703803 22.4741819,20.5894737 L16.1365196,26.9052632 C14.9965953,28.0381798 13.1516819,28.0381798 12.0117577,26.9052632 L12.0117577,26.9052632 C10.8934767,25.7896327 10.8723814,23.9887089 11.9642252,22.8473684 Z" id="Path" fill="#D61360"></path>
                    <path d="M1.72361915,29.0736842 L12.2124503,40 L12.2124503,40 C13.3147525,38.9499619 13.9530291,37.5063455 13.9867092,35.9870854 C14.0203894,34.4678254 13.4467107,32.9975265 12.3920174,31.9 L5.70050227,24.9421053" id="Path" fill="url(#linearGradient-3)"></path>
                    <polygon id="Path" fill="url(#linearGradient-4)" opacity="0.64" style="mix-blend-mode: multiply;" points="4.40656288 31.8842105 1.72361915 29.0736842 5.70050227 24.9368421 8.47322954 27.8368421"></polygon>
                    <path d="M1.81868409,20.3157895 L8.81651959,13.3421053 C9.36130726,12.7989429 10.1003514,12.493776 10.8709785,12.493776 C11.6416055,12.493776 12.3806497,12.7989429 12.9254373,13.3421053 L12.9254373,13.3421053 C14.0450214,14.4580046 14.0637963,16.2611897 12.9676884,17.4 L1.72361915,29.0736842 C-0.610877057,26.6030283 -0.568896376,22.7355415 1.81868409,20.3157895 L1.81868409,20.3157895 Z" id="Path" fill="url(#linearGradient-5)"></path>
                </g>
            </g>
        </g>
    </g>
</svg>