<?xml version="1.0" encoding="UTF-8"?>
<svg width="122px" height="40px" viewBox="0 0 122 40" version="1.1" xmlns="http://www.w3.org/2000/svg" xmlns:xlink="http://www.w3.org/1999/xlink">
    <!-- Generator: Sketch 53.2 (72643) - https://sketchapp.com -->
    <title>mphasis_logo</title>
    <desc>Created with Sketch.</desc>
    <defs>
        <linearGradient x1="100.040029%" y1="49.9177361%" x2="0.00846540639%" y2="49.9177361%" id="linearGradient-1">
            <stop stop-color="#9055A2" offset="0%"></stop>
            <stop stop-color="#9F4697" offset="22%"></stop>
            <stop stop-color="#C51D7A" offset="66%"></stop>
            <stop stop-color="#C81A78" offset="69%"></stop>
        </linearGradient>
        <linearGradient x1="39.6925199%" y1="38.8636364%" x2="79.3026934%" y2="79.6212121%" id="linearGradient-2">
            <stop stop-color="#FFFFFF" stop-opacity="0" offset="0%"></stop>
            <stop stop-color="#000000" offset="100%"></stop>
        </linearGradient>
        <linearGradient x1="-7.84065436e-14%" y1="49.9475708%" x2="99.990893%" y2="49.9475708%" id="linearGradient-3">
            <stop stop-color="#0B9DD4" offset="0%"></stop>
            <stop stop-color="#A4CE49" offset="85%"></stop>
        </linearGradient>
        <linearGradient x1="60.2659866%" y1="61.2121212%" x2="20.5314484%" y2="20.4545455%" id="linearGradient-4">
            <stop stop-color="#FFFFFF" stop-opacity="0" offset="0%"></stop>
            <stop stop-color="#000000" offset="100%"></stop>
        </linearGradient>
        <linearGradient x1="7.83301831%" y1="93.3654639%" x2="91.2141695%" y2="-6.59699664%" id="linearGradient-5">
            <stop stop-color="#A7DEEE" offset="0%"></stop>
            <stop stop-color="#0B9DD4" offset="100%"></stop>
        </linearGradient>
    </defs>
    <g id="Page-1" stroke="none" stroke-width="1" fill="none" fill-rule="evenodd">
        <g id="mphasis_logo">
            <polygon id="Path" fill="#FFFFFF" points="32.2587013 29.6789474 32.2587013 29.0578947 36.7742857 29.0578947 36.7742857 29.6789474 34.8571429 29.6789474 34.8571429 34.6421053 34.1705628 34.6421053 34.1705628 29.6789474"></polygon>
            <path d="M39.7635498,29.0631579 L39.7635498,31.3526316 C40.067716,30.8996659 40.5847957,30.6350549 41.1314286,30.6526316 C42.2510823,30.6526316 42.7792208,31.3842105 42.7792208,32.4736842 L42.7792208,34.6421053 L42.1401732,34.6421053 L42.1401732,32.4789474 C42.1892337,32.1622572 42.0908679,31.8405419 41.8729367,31.604923 C41.6550054,31.3693042 41.3412433,31.2454428 41.0205195,31.2684211 C40.6811198,31.2652937 40.3552426,31.4008211 40.1187583,31.6434499 C39.882274,31.8860787 39.7558178,32.2146375 39.7688312,32.5526316 L39.7688312,34.6578947 L39.1139394,34.6578947 L39.1139394,29.0578947 L39.7635498,29.0578947 L39.7635498,29.0631579 Z" id="Path" fill="#FFFFFF"></path>
            <path d="M49.074632,34.0105263 C48.6352805,34.4830269 48.0150648,34.7470962 47.3687446,34.7368421 C46.6328703,34.7424832 45.9498744,34.3564663 45.5770351,33.7242004 C45.2041957,33.0919345 45.1981559,32.3094757 45.5611909,31.6715688 C45.9242259,31.0336618 46.6011819,30.63722 47.3370563,30.6315789 C48.5464935,30.6315789 49.4496104,31.3736842 49.3175758,32.9473684 L45.9480519,32.9473684 C46.0284307,33.660477 46.6613889,34.1818545 47.3793074,34.1263158 C47.8484476,34.1390184 48.3024603,33.9603214 48.6362771,33.6315789 L49.0799134,34.0315789 L49.074632,34.0105263 Z M48.6890909,32.3842105 C48.6885154,32.0443367 48.5420741,31.7209422 48.2867241,31.4956419 C48.0313742,31.2703416 47.6915091,31.1646582 47.3529004,31.2052632 C46.6502443,31.1692413 46.038175,31.6783031 45.9480519,32.3736842 L48.6838095,32.3736842 L48.6890909,32.3842105 Z" id="Shape" fill="#FFFFFF" fill-rule="nonzero"></path>
            <polygon id="Path" fill="#FFFFFF" points="56.1147186 29.0578947 59.547619 33.3315789 59.547619 29.0578947 60.2394805 29.0578947 60.2394805 34.6421053 59.7588745 34.6421053 56.3154113 30.3789474 56.3154113 34.6421053 55.6235498 34.6421053 55.6235498 29.0578947"></polygon>
            <path d="M66.6299567,34.0105263 C66.1906052,34.4830269 65.5703894,34.7470962 64.9240693,34.7368421 C64.1881949,34.7424832 63.5051991,34.3564663 63.1323597,33.7242004 C62.7595204,33.0919345 62.7534806,32.3094757 63.1165156,31.6715688 C63.4795506,31.0336618 64.1565066,30.63722 64.892381,30.6315789 C66.1018182,30.6315789 67.0049351,31.3736842 66.867619,32.9473684 L63.5033766,32.9473684 C63.596865,33.6616668 64.2414658,34.1737057 64.961039,34.1052632 C65.4301792,34.1179658 65.8841919,33.9392687 66.2180087,33.6105263 L66.6563636,34.0105263 L66.6299567,34.0105263 Z M66.2444156,32.3842105 C66.2438401,32.0443367 66.0973987,31.7209422 65.8420488,31.4956419 C65.5866989,31.2703416 65.2468337,31.1646582 64.9082251,31.2052632 C64.2064339,31.1718168 63.5958877,31.6796118 63.5033766,32.3736842 L66.2444156,32.3736842 L66.2444156,32.3842105 Z" id="Shape" fill="#FFFFFF" fill-rule="nonzero"></path>
            <polygon id="Path" fill="#FFFFFF" points="70.2424242 32.6315789 68.9115152 30.7368421 68.9115152 30.7105263 69.6403463 30.7105263 70.6649351 32.2052632 71.6736797 30.7105263 72.4289177 30.7105263 72.4289177 30.7368421 71.0980087 32.6315789 72.5451082 34.6368421 72.5451082 34.6368421 71.7951515 34.6368421 70.6807792 33.0578947 69.5611255 34.6368421 68.8322944 34.6368421 68.8322944 34.6368421"></polygon>
            <path d="M75.98329,30.7052632 L77.2085714,30.7052632 L77.2085714,31.2684211 L75.9727273,31.2684211 L75.9727273,33.3736842 C75.9727273,33.8368421 76.1258874,34.1315789 76.6012121,34.1315789 C76.785619,34.1235966 76.965972,34.0750694 77.1293506,33.9894737 L77.3247619,34.5157895 C77.083595,34.6320013 76.8212775,34.6982496 76.5536797,34.7105263 C75.7033766,34.7105263 75.3072727,34.2315789 75.3072727,33.3578947 L75.3072727,31.2526316 L74.5150649,31.2526316 L74.5150649,30.7052632 L75.3072727,30.7052632 L75.3072727,29.6210526 L75.9621645,29.5526316 L75.98329,30.7052632 Z" id="Path" fill="#FFFFFF"></path>
            <path d="M85.8911688,29.0578947 L88.4051082,34.6421053 L87.6709957,34.6421053 L87.1428571,33.4157895 L83.9370563,33.4157895 L83.4089177,34.6421053 L82.6483983,34.6421053 L85.1623377,29.0578947 L85.8911688,29.0578947 Z M85.4950649,29.7578947 L84.1694372,32.7736842 L86.8101299,32.7736842 L85.4950649,29.7578947 Z" id="Shape" fill="#FFFFFF" fill-rule="nonzero"></path>
            <path d="M90.7394805,30.7157895 L91.3679654,30.7157895 L91.3996537,31.4736842 C91.7238965,30.9484356 92.3019528,30.6324019 92.9206926,30.6421053 C94.013737,30.707483 94.8632298,31.6157002 94.8519562,32.7068745 C94.8406825,33.7980489 93.972605,34.688643 92.8784416,34.7315789 C92.2664474,34.7584031 91.6880691,34.4520742 91.3679654,33.9315789 L91.3679654,36.5 L90.7236364,36.5 L90.7394805,30.7157895 Z M94.2357576,32.6947368 C94.2638178,32.3164797 94.1267193,31.9445544 93.8596235,31.6743474 C93.5925276,31.4041405 93.221418,31.2619381 92.8414719,31.2842105 C92.465696,31.2734313 92.1025025,31.419664 91.839705,31.6875521 C91.5769074,31.9554401 91.4384281,32.3205978 91.4577489,32.6947368 C91.4432984,33.0685298 91.5830279,33.4319237 91.8444307,33.7003785 C92.1058334,33.9688333 92.4661195,34.1189442 92.8414719,34.1157895 C93.2214698,34.1314846 93.590293,33.9856998 93.8561843,33.714704 C94.1220756,33.4437082 94.2600412,33.072975 94.2357576,32.6947368 L94.2357576,32.6947368 Z" id="Shape" fill="#FFFFFF" fill-rule="nonzero"></path>
            <path d="M97.4468398,30.7157895 L98.0700433,30.7157895 L98.1017316,31.4736842 C98.4259744,30.9484356 99.0040308,30.6324019 99.6227706,30.6421053 C100.715685,30.7063412 101.56605,31.6133755 101.556187,32.7043661 C101.546325,33.7953567 100.679699,34.686976 99.5858009,34.7315789 C98.9777788,34.7534053 98.4049117,34.4478585 98.0858874,33.9315789 L98.0858874,36.5 L97.4468398,36.5 L97.4468398,30.7157895 Z M100.937835,32.6947368 C100.965896,32.3164797 100.828797,31.9445544 100.561701,31.6743474 C100.294606,31.4041405 99.9234959,31.2619381 99.5435498,31.2842105 C99.1677739,31.2734313 98.8045805,31.419664 98.5417829,31.6875521 C98.2789853,31.9554401 98.1405061,32.3205978 98.1598268,32.6947368 C98.1453763,33.0685298 98.2851058,33.4319237 98.5465086,33.7003785 C98.8079113,33.9688333 99.1681974,34.1189442 99.5435498,34.1157895 C99.9235477,34.1314846 100.292371,33.9856998 100.558262,33.714704 C100.824154,33.4437082 100.962119,33.072975 100.937835,32.6947368 L100.937835,32.6947368 Z" id="Shape" fill="#FFFFFF" fill-rule="nonzero"></path>
            <polygon id="Path" fill="#FFFFFF" points="104.851342 34.6421053 104.19645 34.6421053 104.19645 29.0578947 104.851342 29.0578947"></polygon>
            <path d="M108.608225,29.5052632 C108.608225,29.7436176 108.384367,29.936842 108.108225,29.936842 C107.832083,29.936842 107.608225,29.7436176 107.608225,29.5052632 C107.608225,29.2669087 107.832083,29.0736842 108.108225,29.0736842 C108.384367,29.0736842 108.608225,29.2669087 108.608225,29.5052632 L108.608225,29.5052632 Z M107.717981,34.6421053 L108.474079,34.6421053 L108.474079,30.6842105 L107.717981,30.6842105 L107.717981,34.6421053 Z" id="Shape" fill="#FFFFFF" fill-rule="nonzero"></path>
            <path d="M114.701126,34.0105263 C114.26875,34.4772908 113.659072,34.7409549 113.021645,34.7368421 C112.285771,34.7424832 111.602775,34.3564663 111.229935,33.7242004 C110.857096,33.0919345 110.851056,32.3094757 111.214091,31.6715688 C111.577126,31.0336618 112.254082,30.63722 112.989957,30.6315789 C114.199394,30.6315789 115.102511,31.3736842 114.970476,32.9473684 L111.606234,32.9473684 C111.696756,33.645492 112.316892,34.1528022 113.021645,34.1052632 C113.492277,34.1175734 113.947777,33.939041 114.283896,33.6105263 L114.722251,34.0105263 L114.701126,34.0105263 Z M114.320866,32.3842105 C114.320474,32.0432997 114.17332,31.7189426 113.916747,31.4934551 C113.660175,31.2679675 113.31885,31.1630262 112.979394,31.2052632 C112.27872,31.1720738 111.669814,31.6804159 111.579827,32.3736842 L114.320866,32.3736842 L114.320866,32.3842105 Z" id="Shape" fill="#FFFFFF" fill-rule="nonzero"></path>
            <path d="M121.35039,29.0473684 L121.35039,34.6368421 L120.732468,34.6368421 L120.700779,33.9157895 C120.38789,34.4278682 119.823353,34.7332738 119.221991,34.7157895 C118.129224,34.6605219 117.271664,33.7614496 117.271664,32.6710526 C117.271664,31.5806556 118.129224,30.6815833 119.221991,30.6263158 C119.822814,30.6058105 120.388811,30.9069016 120.706061,31.4157895 L120.706061,29.0578947 L121.355671,29.0578947 L121.35039,29.0473684 Z M119.269524,31.2315789 C118.511354,31.2774544 117.92005,31.9035817 117.92005,32.6605263 C117.92005,33.417471 118.511354,34.0435983 119.269524,34.0894737 C120.027694,34.0435983 120.618998,33.417471 120.618998,32.6605263 C120.618998,31.9035817 120.027694,31.2774544 119.269524,31.2315789 L119.269524,31.2315789 Z" id="Shape" fill="#FFFFFF" fill-rule="nonzero"></path>
            <polygon id="Path" fill="#FFFFFF" points="46.2385281 7.26315789 40.7722944 14.8421053 40.2441558 14.8421053 34.8148918 7.26315789 34.8148918 19.5631579 32.2428571 19.5631579 32.2428571 3.52631579 35.2321212 3.52631579 40.5399134 11.0526316 45.8212987 3.53684211 48.8105628 3.53684211 48.8105628 19.5631579 46.2385281 19.5631579"></polygon>
            <path d="M52.3332468,24.7842105 L52.3332468,8.24736842 L54.5619913,8.24736842 L54.6993074,10.0789474 C55.6009551,8.76441059 57.105019,7.98926785 58.7025974,8.01578947 C62.0774026,8.01578947 64.4223377,10.4894737 64.4223377,13.9052632 C64.4223377,17.3210526 62.2147186,19.7894737 58.7025974,19.7894737 C57.3188745,19.7894737 55.5337662,19.2631579 54.6993074,17.8894737 L54.6993074,24.7842105 L52.3332468,24.7842105 Z M62.0562771,13.9052632 C62.1066225,12.6005585 61.4368651,11.3729052 60.3106925,10.7056378 C59.1845198,10.0383704 57.78232,10.0383704 56.6561473,10.7056378 C55.5299747,11.3729052 54.8602173,12.6005585 54.9105628,13.9052632 C54.8602173,15.2099678 55.5299747,16.4376211 56.6561473,17.1048885 C57.78232,17.7721559 59.1845198,17.7721559 60.3106925,17.1048885 C61.4368651,16.4376211 62.1066225,15.2099678 62.0562771,13.9052632 Z" id="Shape" fill="#FFFFFF" fill-rule="nonzero"></path>
            <path d="M69.3181818,3.50526316 L69.3181818,9.92105263 C70.1538958,8.71865925 71.5486075,8.02569572 73.0151515,8.08421053 C76.2103896,8.08421053 77.6786147,10.2157895 77.6786147,13.4473684 L77.6786147,19.5368421 L75.3125541,19.5368421 L75.3125541,13.4684211 C75.3125541,11.3368421 74.2087446,10.2842105 72.4606061,10.2842105 C70.622684,10.2842105 69.334026,11.8 69.334026,13.6526316 L69.334026,19.5368421 L66.9679654,19.5368421 L66.9679654,3.50526316 L69.3181818,3.50526316 Z" id="Path" fill="#FFFFFF"></path>
            <path d="M89.8258009,8.24736842 L92.1232035,8.24736842 L92.1232035,19.5368421 L89.8680519,19.5368421 L89.7835498,17.7052632 C89.0230303,19.1473684 87.2748918,19.8105263 85.8753247,19.8105263 C82.5638961,19.8105263 80.0658009,17.7052632 80.0658009,13.8526316 C80.0658009,10 82.6642424,7.96842105 85.9281385,7.96842105 C87.4904677,7.92197579 88.95942,8.70806068 89.7835498,10.0315789 L89.8258009,8.24736842 Z M82.3896104,13.8789474 C82.3324118,14.879061 82.7009317,15.8568673 83.4046476,16.5721802 C84.1083635,17.2874932 85.0820671,17.6740298 86.0865801,17.6368421 C90.9824242,17.6368421 90.9824242,10.1473684 86.0865801,10.1473684 C85.0864416,10.1091235 84.1162376,10.4916213 83.4130474,11.2013945 C82.7098572,11.9111676 82.3384599,12.8828305 82.3896104,13.8789474 L82.3896104,13.8789474 Z" id="Shape" fill="#FFFFFF" fill-rule="nonzero"></path>
            <path d="M102.580346,11.0157895 C101.768845,10.2782281 100.692773,9.89863242 99.5963636,9.96315789 C98.1439827,9.96315789 97.1827706,10.4210526 97.1827706,11.3157895 C97.1827706,12.2105263 98.1915152,12.6210526 99.6386147,12.7578947 C101.751169,12.9421053 104.465801,13.4 104.444675,16.3105263 C104.444675,18.4157895 102.559221,19.8842105 99.6174892,19.8842105 C97.7795671,19.8842105 95.9205195,19.4684211 94.447013,17.7789474 L95.6881385,16.1052632 C96.7325008,17.1755645 98.166961,17.7792618 99.6650216,17.7789474 C100.789957,17.7789474 102.052208,17.3631579 102.078615,16.3105263 C102.105022,15.2578947 101.133247,14.9157895 99.4379221,14.7315789 C97.325368,14.5263158 94.8431169,13.8368421 94.8219913,11.3421053 C94.8008658,8.84736842 97.4151515,7.90526316 99.532987,7.90526316 C101.145696,7.8238523 102.724093,8.38859777 103.916537,9.47368421 L102.580346,11.0157895 Z" id="Path" fill="#FFFFFF"></path>
            <path d="M109.477835,4.92631579 C109.477835,6.87368421 106.536104,6.87368421 106.536104,4.92631579 C106.536104,2.97894737 109.477835,3 109.477835,4.92631579 Z M106.837143,8.2 L106.837143,19.5368421 L109.208485,19.5368421 L109.208485,8.2 L106.837143,8.2 Z" id="Shape" fill="#FFFFFF" fill-rule="nonzero"></path>
            <path d="M119.639221,11.0157895 C118.82547,10.2784529 117.747902,9.89900102 116.649957,9.96315789 C115.202857,9.96315789 114.236364,10.4210526 114.236364,11.3157895 C114.236364,12.2105263 115.25039,12.6315789 116.718615,12.7578947 C118.831169,12.9421053 121.545801,13.4 121.524675,16.3105263 C121.498268,18.4157895 119.639221,19.8842105 116.697489,19.8842105 C114.854286,19.8842105 113.000519,19.4684211 111.521732,17.7789474 L112.762857,16.1052632 C113.799945,17.1760912 115.225295,17.7867436 116.718615,17.8 C117.848831,17.8 119.111082,17.3842105 119.132208,16.3315789 C119.153333,15.2789474 118.192121,14.9368421 116.491515,14.7526316 C114.352554,14.5473684 111.89671,13.8578947 111.870303,11.3631579 C111.843896,8.86842105 114.468745,7.92631579 116.581299,7.92631579 C118.192918,7.83718216 119.773323,8.39438474 120.97013,9.47368421 L119.639221,11.0157895 Z" id="Path" fill="#FFFFFF"></path>
            <path d="M22.5726407,11.8368421 L11.1542857,0 L11.1542857,0 C10.0519835,1.05003809 9.41370694,2.49365452 9.3800268,4.01291455 C9.34634666,5.53217459 9.92002529,7.00247345 10.9747186,8.1 L18.5957576,15.9947368" id="Path" fill="url(#linearGradient-1)"></path>
            <polygon id="Path" fill="url(#linearGradient-2)" opacity="0.64" style="mix-blend-mode: multiply;" points="19.889697 9.02105263 22.5726407 11.8368421 18.5957576 15.9684211 15.8441558 13.0684211"></polygon>
            <path d="M11.967619,22.8473684 L22.5726407,11.8368421 C24.9037425,14.3067969 24.861779,18.1703803 22.4775758,20.5894737 L16.1399134,26.9052632 C14.9999892,28.0381798 13.1550758,28.0381798 12.0151515,26.9052632 L12.0151515,26.9052632 C10.8968705,25.7896327 10.8757752,23.9887089 11.967619,22.8473684 Z" id="Path" fill="#D61360"></path>
            <path d="M1.72701299,29.0736842 L12.2158442,40 L12.2158442,40 C13.3181464,38.9499619 13.9564229,37.5063455 13.9901031,35.9870854 C14.0237832,34.4678254 13.4501046,32.9975265 12.3954113,31.9 L5.7038961,24.9421053" id="Path" fill="url(#linearGradient-3)"></path>
            <polygon id="Path" fill="url(#linearGradient-4)" opacity="0.64" style="mix-blend-mode: multiply;" points="4.40995671 31.8842105 1.72701299 29.0736842 5.7038961 24.9368421 8.47662338 27.8368421"></polygon>
            <path d="M1.82207792,20.3157895 L8.81991342,13.3421053 C9.36470109,12.7989429 10.1037453,12.493776 10.8743723,12.493776 C11.6449993,12.493776 12.3840435,12.7989429 12.9288312,13.3421053 L12.9288312,13.3421053 C14.0484152,14.4580046 14.0671901,16.2611897 12.9710823,17.4 L1.72701299,29.0736842 C-0.607483222,26.6030283 -0.565502542,22.7355415 1.82207792,20.3157895 L1.82207792,20.3157895 Z" id="Path" fill="url(#linearGradient-5)"></path>
        </g>
    </g>
</svg>